<svg xmlns="http://www.w3.org/2000/svg" xmlns:xlink="http://www.w3.org/1999/xlink" width="500" zoomAndPan="magnify" viewBox="0 0 375 374.999991" height="500" preserveAspectRatio="xMidYMid meet" version="1.0"><defs><g/><clipPath id="6407515571"><path d="M 55 0.839844 L 291 0.839844 L 291 176 L 55 176 Z M 55 0.839844 " clip-rule="nonzero"/></clipPath><clipPath id="47c4d567d2"><path d="M 0.914062 41 L 84 41 L 84 176 L 0.914062 176 Z M 0.914062 41 " clip-rule="nonzero"/></clipPath><clipPath id="d071dbc731"><path d="M 13.136719 78.734375 L 70.136719 78.734375 L 70.136719 134.128906 L 13.136719 134.128906 Z M 13.136719 78.734375 " clip-rule="nonzero"/></clipPath><clipPath id="fc9137a8e7"><rect x="0" width="160" y="0" height="146"/></clipPath><clipPath id="833405adac"><rect x="0" width="293" y="0" height="179"/></clipPath></defs><g transform="matrix(1, 0, 0, 1, 41, 99)"><g clip-path="url(#833405adac)"><g clip-path="url(#6407515571)"><path fill="#ff6c0c" d="M 290.460938 150.558594 L 270.425781 150.558594 L 270.425781 11.664062 C 270.425781 5.707031 265.59375 0.878906 259.640625 0.878906 L 66.6875 0.878906 C 60.738281 0.878906 55.90625 5.707031 55.90625 11.664062 L 55.90625 33.507812 L 66.964844 33.507812 C 67.160156 33.507812 67.335938 33.558594 67.523438 33.570312 L 67.523438 19.507812 C 67.523438 16.527344 69.933594 14.117188 72.917969 14.117188 L 253.421875 14.117188 C 256.402344 14.117188 258.8125 16.527344 258.8125 19.507812 L 258.8125 150.558594 L 186.753906 150.558594 L 186.753906 155.097656 C 186.753906 158.078125 184.34375 160.488281 181.363281 160.488281 L 144.96875 160.488281 C 141.988281 160.488281 139.578125 158.078125 139.578125 155.097656 L 139.578125 150.558594 L 91.226562 150.558594 L 91.226562 159.773438 C 91.226562 166.007812 88.796875 171.640625 84.914062 175.949219 L 267.996094 175.949219 C 292.257812 175.949219 290.460938 150.558594 290.460938 150.558594 Z M 290.460938 150.558594 " fill-opacity="1" fill-rule="nonzero"/></g><g clip-path="url(#47c4d567d2)"><path fill="#ff6c0c" d="M 66.964844 41.59375 L 17.089844 41.59375 C 8.15625 41.59375 0.914062 48.839844 0.914062 57.769531 L 0.914062 159.773438 C 0.914062 168.703125 8.15625 175.949219 17.089844 175.949219 L 66.964844 175.949219 C 75.898438 175.949219 83.140625 168.703125 83.140625 159.773438 L 83.140625 57.769531 C 83.140625 48.839844 75.898438 41.59375 66.964844 41.59375 Z M 47.085938 170.070312 L 36.972656 170.070312 C 34.675781 170.070312 32.816406 168.207031 32.816406 165.914062 C 32.816406 163.621094 34.675781 161.761719 36.972656 161.761719 L 47.085938 161.761719 C 49.382812 161.761719 51.242188 163.617188 51.242188 165.914062 C 51.242188 168.210938 49.375 170.070312 47.085938 170.070312 Z M 74.378906 150.21875 C 74.378906 153.191406 71.96875 155.609375 68.984375 155.609375 L 15.066406 155.609375 C 12.085938 155.609375 9.675781 153.191406 9.675781 150.21875 L 9.675781 63.949219 C 9.675781 60.96875 12.085938 58.558594 15.066406 58.558594 L 68.984375 58.558594 C 71.96875 58.558594 74.378906 60.96875 74.378906 63.949219 Z M 74.378906 150.21875 " fill-opacity="1" fill-rule="nonzero"/></g><g clip-path="url(#d071dbc731)"><path fill="#ff6c0c" d="M 20.269531 78.734375 L 19.558594 80.15625 L 27.03125 84.429688 C 27.03125 87.988281 25.609375 90.835938 22.40625 92.613281 L 14.929688 88.34375 L 14.574219 89.054688 C 16.355469 94.394531 19.914062 97.953125 27.03125 97.953125 C 28.8125 97.953125 34.148438 103.292969 36.996094 106.136719 L 42.691406 100.445312 C 39.84375 97.597656 33.4375 91.191406 33.4375 89.410156 C 33.4375 83.003906 31.660156 78.734375 20.269531 78.734375 Z M 64.757812 80.515625 L 57.640625 85.496094 L 56.925781 88.34375 L 36.285156 108.984375 L 33.4375 107.207031 L 32.015625 108.628906 C 32.015625 112.902344 27.03125 115.035156 24.898438 115.035156 L 13.152344 126.78125 C 13.152344 130.339844 17.066406 134.253906 20.625 134.253906 L 32.371094 122.507812 C 32.371094 120.375 34.503906 115.390625 38.777344 115.390625 L 40.199219 113.96875 L 38.421875 111.121094 L 59.0625 90.480469 L 61.910156 89.765625 L 66.890625 82.648438 Z M 46.960938 104.714844 L 41.269531 110.410156 C 45.539062 114.679688 51.234375 120.375 51.234375 122.152344 C 51.234375 128.558594 53.011719 132.832031 64.402344 132.832031 L 65.113281 131.40625 L 57.640625 127.136719 C 57.640625 123.578125 59.0625 120.730469 62.265625 118.949219 L 69.738281 123.222656 L 70.09375 122.507812 C 68.316406 117.171875 64.757812 113.613281 57.640625 113.613281 C 55.859375 113.613281 51.234375 108.984375 46.960938 104.714844 Z M 46.960938 104.714844 " fill-opacity="1" fill-rule="nonzero"/></g><g transform="matrix(1, 0, 0, 1, 94, 5)"><g clip-path="url(#fc9137a8e7)"><g fill="#ff6c0c" fill-opacity="0.4"><g transform="translate(1.674064, 66.651259)"><g><path d="M 2.921875 0 L 2.921875 -6.734375 L 8.90625 -6.734375 L 8.90625 -37.75 L 2.921875 -37.75 L 2.921875 -44.5 L 21.046875 -44.5 C 26.972656 -44.5 31.503906 -42.992188 34.640625 -39.984375 C 37.773438 -36.972656 39.34375 -32.457031 39.34375 -26.4375 L 39.34375 -18.046875 C 39.34375 -12.035156 37.773438 -7.523438 34.640625 -4.515625 C 31.503906 -1.503906 26.972656 0 21.046875 0 Z M 16.53125 -6.921875 L 21.109375 -6.921875 C 24.703125 -6.921875 27.367188 -7.851562 29.109375 -9.71875 C 30.847656 -11.582031 31.71875 -14.273438 31.71875 -17.796875 L 31.71875 -26.625 C 31.71875 -30.226562 30.847656 -32.953125 29.109375 -34.796875 C 27.367188 -36.640625 24.703125 -37.5625 21.109375 -37.5625 L 16.53125 -37.5625 Z M 16.53125 -6.921875 "/></g></g></g><g fill="#ff6c0c" fill-opacity="0.4"><g transform="translate(43.939111, 66.651259)"><g><path d="M 14.359375 0.890625 C 12.160156 0.890625 10.171875 0.5 8.390625 -0.28125 C 6.609375 -1.070312 5.195312 -2.207031 4.15625 -3.6875 C 3.125 -5.164062 2.609375 -6.988281 2.609375 -9.15625 C 2.609375 -11.269531 3.125 -13.046875 4.15625 -14.484375 C 5.195312 -15.929688 6.628906 -17.023438 8.453125 -17.765625 C 10.273438 -18.503906 12.351562 -18.875 14.6875 -18.875 L 23.765625 -18.875 L 23.765625 -20.78125 C 23.765625 -22.4375 23.253906 -23.78125 22.234375 -24.8125 C 21.222656 -25.851562 19.640625 -26.375 17.484375 -26.375 C 15.359375 -26.375 13.753906 -25.875 12.671875 -24.875 C 11.597656 -23.882812 10.890625 -22.609375 10.546875 -21.046875 L 3.8125 -23.265625 C 4.320312 -24.921875 5.132812 -26.425781 6.25 -27.78125 C 7.375 -29.132812 8.867188 -30.222656 10.734375 -31.046875 C 12.597656 -31.878906 14.890625 -32.296875 17.609375 -32.296875 C 21.710938 -32.296875 24.941406 -31.265625 27.296875 -29.203125 C 29.648438 -27.148438 30.828125 -24.175781 30.828125 -20.28125 L 30.828125 -7.9375 C 30.828125 -6.664062 31.421875 -6.03125 32.609375 -6.03125 L 35.28125 -6.03125 L 35.28125 0 L 30.125 0 C 28.601562 0 27.351562 -0.378906 26.375 -1.140625 C 25.40625 -1.898438 24.921875 -2.941406 24.921875 -4.265625 L 24.921875 -4.390625 L 23.828125 -4.390625 C 23.578125 -3.796875 23.132812 -3.070312 22.5 -2.21875 C 21.863281 -1.375 20.898438 -0.644531 19.609375 -0.03125 C 18.316406 0.582031 16.566406 0.890625 14.359375 0.890625 Z M 15.578125 -5.078125 C 17.992188 -5.078125 19.960938 -5.765625 21.484375 -7.140625 C 23.003906 -8.523438 23.765625 -10.382812 23.765625 -12.71875 L 23.765625 -13.34375 L 15.125 -13.34375 C 13.5625 -13.34375 12.289062 -13.003906 11.3125 -12.328125 C 10.34375 -11.648438 9.859375 -10.65625 9.859375 -9.34375 C 9.859375 -8.070312 10.363281 -7.039062 11.375 -6.25 C 12.394531 -5.46875 13.796875 -5.078125 15.578125 -5.078125 Z M 15.578125 -5.078125 "/></g></g></g><g fill="#ff6c0c" fill-opacity="0.4"><g transform="translate(80.611192, 66.651259)"><g><path d="M 17.609375 0.890625 C 13.535156 0.890625 10.1875 0 7.5625 -1.78125 C 4.9375 -3.5625 3.347656 -6.164062 2.796875 -9.59375 L 9.53125 -11.3125 C 9.832031 -9.707031 10.363281 -8.4375 11.125 -7.5 C 11.882812 -6.570312 12.828125 -5.914062 13.953125 -5.53125 C 15.078125 -5.144531 16.296875 -4.953125 17.609375 -4.953125 C 19.597656 -4.953125 21.085938 -5.3125 22.078125 -6.03125 C 23.078125 -6.757812 23.578125 -7.671875 23.578125 -8.765625 C 23.578125 -9.910156 23.097656 -10.757812 22.140625 -11.3125 C 21.191406 -11.863281 19.742188 -12.332031 17.796875 -12.71875 L 15.828125 -13.03125 C 13.660156 -13.457031 11.6875 -14.039062 9.90625 -14.78125 C 8.132812 -15.519531 6.707031 -16.535156 5.625 -17.828125 C 4.539062 -19.117188 4 -20.757812 4 -22.75 C 4 -25.800781 5.132812 -28.15625 7.40625 -29.8125 C 9.675781 -31.46875 12.648438 -32.296875 16.328125 -32.296875 C 19.847656 -32.296875 22.75 -31.507812 25.03125 -29.9375 C 27.320312 -28.375 28.8125 -26.273438 29.5 -23.640625 L 22.75 -21.609375 C 22.414062 -23.390625 21.675781 -24.648438 20.53125 -25.390625 C 19.382812 -26.128906 17.984375 -26.5 16.328125 -26.5 C 14.640625 -26.5 13.335938 -26.203125 12.421875 -25.609375 C 11.515625 -25.015625 11.0625 -24.171875 11.0625 -23.078125 C 11.0625 -21.972656 11.523438 -21.144531 12.453125 -20.59375 C 13.390625 -20.039062 14.640625 -19.640625 16.203125 -19.390625 L 18.171875 -19 C 20.503906 -18.582031 22.613281 -18.03125 24.5 -17.34375 C 26.382812 -16.664062 27.878906 -15.691406 28.984375 -14.421875 C 30.085938 -13.148438 30.640625 -11.4375 30.640625 -9.28125 C 30.640625 -6.019531 29.460938 -3.507812 27.109375 -1.75 C 24.753906 0.0078125 21.585938 0.890625 17.609375 0.890625 Z M 17.609375 0.890625 "/></g></g></g><g fill="#ff6c0c" fill-opacity="0.4"><g transform="translate(113.97833, 66.651259)"><g><path d="M 4.640625 0 L 4.640625 -44.5 L 11.953125 -44.5 L 11.953125 -27.265625 L 13.03125 -27.265625 C 13.363281 -27.984375 13.910156 -28.703125 14.671875 -29.421875 C 15.441406 -30.148438 16.453125 -30.742188 17.703125 -31.203125 C 18.953125 -31.671875 20.53125 -31.90625 22.4375 -31.90625 C 24.851562 -31.90625 26.992188 -31.363281 28.859375 -30.28125 C 30.722656 -29.207031 32.171875 -27.691406 33.203125 -25.734375 C 34.242188 -23.785156 34.765625 -21.476562 34.765625 -18.8125 L 34.765625 0 L 27.453125 0 L 27.453125 -18.25 C 27.453125 -20.789062 26.828125 -22.6875 25.578125 -23.9375 C 24.328125 -25.1875 22.5625 -25.8125 20.28125 -25.8125 C 17.695312 -25.8125 15.660156 -24.953125 14.171875 -23.234375 C 12.691406 -21.515625 11.953125 -19.066406 11.953125 -15.890625 L 11.953125 0 Z M 4.640625 0 "/></g></g></g><g fill="#ff6c0c" fill-opacity="0.4"><g transform="translate(-1.895106, 129.603555)"><g><path d="M 4.390625 0 L 4.390625 -44.5 L 32.09375 -44.5 L 32.09375 -37.5625 L 12.078125 -37.5625 L 12.078125 -25.8125 L 30.515625 -25.8125 L 30.515625 -18.8125 L 12.078125 -18.8125 L 12.078125 0 Z M 4.390625 0 "/></g></g></g><g fill="#ff6c0c" fill-opacity="0.4"><g transform="translate(32.107603, 129.603555)"><g><path d="M 4.640625 0 L 4.640625 -31.40625 L 11.953125 -31.40625 L 11.953125 0 Z M 8.265625 -35.40625 C 6.953125 -35.40625 5.816406 -35.835938 4.859375 -36.703125 C 3.910156 -37.578125 3.4375 -38.734375 3.4375 -40.171875 C 3.4375 -41.609375 3.910156 -42.757812 4.859375 -43.625 C 5.816406 -44.5 6.953125 -44.9375 8.265625 -44.9375 C 9.660156 -44.9375 10.8125 -44.5 11.71875 -43.625 C 12.632812 -42.757812 13.09375 -41.609375 13.09375 -40.171875 C 13.09375 -38.734375 12.632812 -37.578125 11.71875 -36.703125 C 10.8125 -35.835938 9.660156 -35.40625 8.265625 -35.40625 Z M 8.265625 -35.40625 "/></g></g></g><g fill="#ff6c0c" fill-opacity="0.4"><g transform="translate(48.695842, 129.603555)"><g><path d="M 1.90625 0 L 13.609375 -15.828125 L 2.09375 -31.40625 L 10.609375 -31.40625 L 18.3125 -20.53125 L 19.390625 -20.53125 L 27.078125 -31.40625 L 35.53125 -31.40625 L 24.03125 -15.828125 L 35.71875 0 L 27.140625 0 L 19.390625 -11.0625 L 18.3125 -11.0625 L 10.546875 0 Z M 1.90625 0 "/></g></g></g><g fill="#ff6c0c" fill-opacity="0.4"><g transform="translate(86.321267, 129.603555)"><g><path d="M 19 0.890625 C 15.863281 0.890625 13.097656 0.222656 10.703125 -1.109375 C 8.316406 -2.441406 6.453125 -4.328125 5.109375 -6.765625 C 3.773438 -9.203125 3.109375 -12.050781 3.109375 -15.3125 L 3.109375 -16.078125 C 3.109375 -19.390625 3.765625 -22.25 5.078125 -24.65625 C 6.398438 -27.070312 8.242188 -28.945312 10.609375 -30.28125 C 12.984375 -31.625 15.71875 -32.296875 18.8125 -32.296875 C 21.863281 -32.296875 24.53125 -31.625 26.8125 -30.28125 C 29.101562 -28.945312 30.882812 -27.070312 32.15625 -24.65625 C 33.425781 -22.25 34.0625 -19.429688 34.0625 -16.203125 L 34.0625 -13.609375 L 10.484375 -13.609375 C 10.566406 -11.148438 11.4375 -9.175781 13.09375 -7.6875 C 14.75 -6.207031 16.785156 -5.46875 19.203125 -5.46875 C 21.566406 -5.46875 23.320312 -5.984375 24.46875 -7.015625 C 25.613281 -8.054688 26.484375 -9.234375 27.078125 -10.546875 L 33.109375 -7.4375 C 32.515625 -6.289062 31.65625 -5.070312 30.53125 -3.78125 C 29.414062 -2.488281 27.925781 -1.382812 26.0625 -0.46875 C 24.195312 0.4375 21.84375 0.890625 19 0.890625 Z M 10.546875 -19.125 L 26.625 -19.125 C 26.457031 -21.207031 25.664062 -22.863281 24.25 -24.09375 C 22.832031 -25.320312 21 -25.9375 18.75 -25.9375 C 16.414062 -25.9375 14.550781 -25.320312 13.15625 -24.09375 C 11.757812 -22.863281 10.890625 -21.207031 10.546875 -19.125 Z M 10.546875 -19.125 "/></g></g></g><g fill="#ff6c0c" fill-opacity="0.4"><g transform="translate(123.247571, 129.603555)"><g><path d="M 17.609375 0.890625 C 13.535156 0.890625 10.1875 0 7.5625 -1.78125 C 4.9375 -3.5625 3.347656 -6.164062 2.796875 -9.59375 L 9.53125 -11.3125 C 9.832031 -9.707031 10.363281 -8.4375 11.125 -7.5 C 11.882812 -6.570312 12.828125 -5.914062 13.953125 -5.53125 C 15.078125 -5.144531 16.296875 -4.953125 17.609375 -4.953125 C 19.597656 -4.953125 21.085938 -5.3125 22.078125 -6.03125 C 23.078125 -6.757812 23.578125 -7.671875 23.578125 -8.765625 C 23.578125 -9.910156 23.097656 -10.757812 22.140625 -11.3125 C 21.191406 -11.863281 19.742188 -12.332031 17.796875 -12.71875 L 15.828125 -13.03125 C 13.660156 -13.457031 11.6875 -14.039062 9.90625 -14.78125 C 8.132812 -15.519531 6.707031 -16.535156 5.625 -17.828125 C 4.539062 -19.117188 4 -20.757812 4 -22.75 C 4 -25.800781 5.132812 -28.15625 7.40625 -29.8125 C 9.675781 -31.46875 12.648438 -32.296875 16.328125 -32.296875 C 19.847656 -32.296875 22.75 -31.507812 25.03125 -29.9375 C 27.320312 -28.375 28.8125 -26.273438 29.5 -23.640625 L 22.75 -21.609375 C 22.414062 -23.390625 21.675781 -24.648438 20.53125 -25.390625 C 19.382812 -26.128906 17.984375 -26.5 16.328125 -26.5 C 14.640625 -26.5 13.335938 -26.203125 12.421875 -25.609375 C 11.515625 -25.015625 11.0625 -24.171875 11.0625 -23.078125 C 11.0625 -21.972656 11.523438 -21.144531 12.453125 -20.59375 C 13.390625 -20.039062 14.640625 -19.640625 16.203125 -19.390625 L 18.171875 -19 C 20.503906 -18.582031 22.613281 -18.03125 24.5 -17.34375 C 26.382812 -16.664062 27.878906 -15.691406 28.984375 -14.421875 C 30.085938 -13.148438 30.640625 -11.4375 30.640625 -9.28125 C 30.640625 -6.019531 29.460938 -3.507812 27.109375 -1.75 C 24.753906 0.0078125 21.585938 0.890625 17.609375 0.890625 Z M 17.609375 0.890625 "/></g></g></g><g fill="#ff6c0c" fill-opacity="1"><g transform="translate(4.483517, 63.841806)"><g><path d="M 2.921875 0 L 2.921875 -6.734375 L 8.90625 -6.734375 L 8.90625 -37.75 L 2.921875 -37.75 L 2.921875 -44.5 L 21.046875 -44.5 C 26.972656 -44.5 31.503906 -42.992188 34.640625 -39.984375 C 37.773438 -36.972656 39.34375 -32.457031 39.34375 -26.4375 L 39.34375 -18.046875 C 39.34375 -12.035156 37.773438 -7.523438 34.640625 -4.515625 C 31.503906 -1.503906 26.972656 0 21.046875 0 Z M 16.53125 -6.921875 L 21.109375 -6.921875 C 24.703125 -6.921875 27.367188 -7.851562 29.109375 -9.71875 C 30.847656 -11.582031 31.71875 -14.273438 31.71875 -17.796875 L 31.71875 -26.625 C 31.71875 -30.226562 30.847656 -32.953125 29.109375 -34.796875 C 27.367188 -36.640625 24.703125 -37.5625 21.109375 -37.5625 L 16.53125 -37.5625 Z M 16.53125 -6.921875 "/></g></g></g><g fill="#ff6c0c" fill-opacity="1"><g transform="translate(46.748564, 63.841806)"><g><path d="M 14.359375 0.890625 C 12.160156 0.890625 10.171875 0.5 8.390625 -0.28125 C 6.609375 -1.070312 5.195312 -2.207031 4.15625 -3.6875 C 3.125 -5.164062 2.609375 -6.988281 2.609375 -9.15625 C 2.609375 -11.269531 3.125 -13.046875 4.15625 -14.484375 C 5.195312 -15.929688 6.628906 -17.023438 8.453125 -17.765625 C 10.273438 -18.503906 12.351562 -18.875 14.6875 -18.875 L 23.765625 -18.875 L 23.765625 -20.78125 C 23.765625 -22.4375 23.253906 -23.78125 22.234375 -24.8125 C 21.222656 -25.851562 19.640625 -26.375 17.484375 -26.375 C 15.359375 -26.375 13.753906 -25.875 12.671875 -24.875 C 11.597656 -23.882812 10.890625 -22.609375 10.546875 -21.046875 L 3.8125 -23.265625 C 4.320312 -24.921875 5.132812 -26.425781 6.25 -27.78125 C 7.375 -29.132812 8.867188 -30.222656 10.734375 -31.046875 C 12.597656 -31.878906 14.890625 -32.296875 17.609375 -32.296875 C 21.710938 -32.296875 24.941406 -31.265625 27.296875 -29.203125 C 29.648438 -27.148438 30.828125 -24.175781 30.828125 -20.28125 L 30.828125 -7.9375 C 30.828125 -6.664062 31.421875 -6.03125 32.609375 -6.03125 L 35.28125 -6.03125 L 35.28125 0 L 30.125 0 C 28.601562 0 27.351562 -0.378906 26.375 -1.140625 C 25.40625 -1.898438 24.921875 -2.941406 24.921875 -4.265625 L 24.921875 -4.390625 L 23.828125 -4.390625 C 23.578125 -3.796875 23.132812 -3.070312 22.5 -2.21875 C 21.863281 -1.375 20.898438 -0.644531 19.609375 -0.03125 C 18.316406 0.582031 16.566406 0.890625 14.359375 0.890625 Z M 15.578125 -5.078125 C 17.992188 -5.078125 19.960938 -5.765625 21.484375 -7.140625 C 23.003906 -8.523438 23.765625 -10.382812 23.765625 -12.71875 L 23.765625 -13.34375 L 15.125 -13.34375 C 13.5625 -13.34375 12.289062 -13.003906 11.3125 -12.328125 C 10.34375 -11.648438 9.859375 -10.65625 9.859375 -9.34375 C 9.859375 -8.070312 10.363281 -7.039062 11.375 -6.25 C 12.394531 -5.46875 13.796875 -5.078125 15.578125 -5.078125 Z M 15.578125 -5.078125 "/></g></g></g><g fill="#ff6c0c" fill-opacity="1"><g transform="translate(83.420645, 63.841806)"><g><path d="M 17.609375 0.890625 C 13.535156 0.890625 10.1875 0 7.5625 -1.78125 C 4.9375 -3.5625 3.347656 -6.164062 2.796875 -9.59375 L 9.53125 -11.3125 C 9.832031 -9.707031 10.363281 -8.4375 11.125 -7.5 C 11.882812 -6.570312 12.828125 -5.914062 13.953125 -5.53125 C 15.078125 -5.144531 16.296875 -4.953125 17.609375 -4.953125 C 19.597656 -4.953125 21.085938 -5.3125 22.078125 -6.03125 C 23.078125 -6.757812 23.578125 -7.671875 23.578125 -8.765625 C 23.578125 -9.910156 23.097656 -10.757812 22.140625 -11.3125 C 21.191406 -11.863281 19.742188 -12.332031 17.796875 -12.71875 L 15.828125 -13.03125 C 13.660156 -13.457031 11.6875 -14.039062 9.90625 -14.78125 C 8.132812 -15.519531 6.707031 -16.535156 5.625 -17.828125 C 4.539062 -19.117188 4 -20.757812 4 -22.75 C 4 -25.800781 5.132812 -28.15625 7.40625 -29.8125 C 9.675781 -31.46875 12.648438 -32.296875 16.328125 -32.296875 C 19.847656 -32.296875 22.75 -31.507812 25.03125 -29.9375 C 27.320312 -28.375 28.8125 -26.273438 29.5 -23.640625 L 22.75 -21.609375 C 22.414062 -23.390625 21.675781 -24.648438 20.53125 -25.390625 C 19.382812 -26.128906 17.984375 -26.5 16.328125 -26.5 C 14.640625 -26.5 13.335938 -26.203125 12.421875 -25.609375 C 11.515625 -25.015625 11.0625 -24.171875 11.0625 -23.078125 C 11.0625 -21.972656 11.523438 -21.144531 12.453125 -20.59375 C 13.390625 -20.039062 14.640625 -19.640625 16.203125 -19.390625 L 18.171875 -19 C 20.503906 -18.582031 22.613281 -18.03125 24.5 -17.34375 C 26.382812 -16.664062 27.878906 -15.691406 28.984375 -14.421875 C 30.085938 -13.148438 30.640625 -11.4375 30.640625 -9.28125 C 30.640625 -6.019531 29.460938 -3.507812 27.109375 -1.75 C 24.753906 0.0078125 21.585938 0.890625 17.609375 0.890625 Z M 17.609375 0.890625 "/></g></g></g><g fill="#ff6c0c" fill-opacity="1"><g transform="translate(116.787783, 63.841806)"><g><path d="M 4.640625 0 L 4.640625 -44.5 L 11.953125 -44.5 L 11.953125 -27.265625 L 13.03125 -27.265625 C 13.363281 -27.984375 13.910156 -28.703125 14.671875 -29.421875 C 15.441406 -30.148438 16.453125 -30.742188 17.703125 -31.203125 C 18.953125 -31.671875 20.53125 -31.90625 22.4375 -31.90625 C 24.851562 -31.90625 26.992188 -31.363281 28.859375 -30.28125 C 30.722656 -29.207031 32.171875 -27.691406 33.203125 -25.734375 C 34.242188 -23.785156 34.765625 -21.476562 34.765625 -18.8125 L 34.765625 0 L 27.453125 0 L 27.453125 -18.25 C 27.453125 -20.789062 26.828125 -22.6875 25.578125 -23.9375 C 24.328125 -25.1875 22.5625 -25.8125 20.28125 -25.8125 C 17.695312 -25.8125 15.660156 -24.953125 14.171875 -23.234375 C 12.691406 -21.515625 11.953125 -19.066406 11.953125 -15.890625 L 11.953125 0 Z M 4.640625 0 "/></g></g></g><g fill="#ff6c0c" fill-opacity="1"><g transform="translate(0.914347, 126.794102)"><g><path d="M 4.390625 0 L 4.390625 -44.5 L 32.09375 -44.5 L 32.09375 -37.5625 L 12.078125 -37.5625 L 12.078125 -25.8125 L 30.515625 -25.8125 L 30.515625 -18.8125 L 12.078125 -18.8125 L 12.078125 0 Z M 4.390625 0 "/></g></g></g><g fill="#ff6c0c" fill-opacity="1"><g transform="translate(34.917056, 126.794102)"><g><path d="M 4.640625 0 L 4.640625 -31.40625 L 11.953125 -31.40625 L 11.953125 0 Z M 8.265625 -35.40625 C 6.953125 -35.40625 5.816406 -35.835938 4.859375 -36.703125 C 3.910156 -37.578125 3.4375 -38.734375 3.4375 -40.171875 C 3.4375 -41.609375 3.910156 -42.757812 4.859375 -43.625 C 5.816406 -44.5 6.953125 -44.9375 8.265625 -44.9375 C 9.660156 -44.9375 10.8125 -44.5 11.71875 -43.625 C 12.632812 -42.757812 13.09375 -41.609375 13.09375 -40.171875 C 13.09375 -38.734375 12.632812 -37.578125 11.71875 -36.703125 C 10.8125 -35.835938 9.660156 -35.40625 8.265625 -35.40625 Z M 8.265625 -35.40625 "/></g></g></g><g fill="#ff6c0c" fill-opacity="1"><g transform="translate(51.505294, 126.794102)"><g><path d="M 1.90625 0 L 13.609375 -15.828125 L 2.09375 -31.40625 L 10.609375 -31.40625 L 18.3125 -20.53125 L 19.390625 -20.53125 L 27.078125 -31.40625 L 35.53125 -31.40625 L 24.03125 -15.828125 L 35.71875 0 L 27.140625 0 L 19.390625 -11.0625 L 18.3125 -11.0625 L 10.546875 0 Z M 1.90625 0 "/></g></g></g><g fill="#ff6c0c" fill-opacity="1"><g transform="translate(89.13072, 126.794102)"><g><path d="M 19 0.890625 C 15.863281 0.890625 13.097656 0.222656 10.703125 -1.109375 C 8.316406 -2.441406 6.453125 -4.328125 5.109375 -6.765625 C 3.773438 -9.203125 3.109375 -12.050781 3.109375 -15.3125 L 3.109375 -16.078125 C 3.109375 -19.390625 3.765625 -22.25 5.078125 -24.65625 C 6.398438 -27.070312 8.242188 -28.945312 10.609375 -30.28125 C 12.984375 -31.625 15.71875 -32.296875 18.8125 -32.296875 C 21.863281 -32.296875 24.53125 -31.625 26.8125 -30.28125 C 29.101562 -28.945312 30.882812 -27.070312 32.15625 -24.65625 C 33.425781 -22.25 34.0625 -19.429688 34.0625 -16.203125 L 34.0625 -13.609375 L 10.484375 -13.609375 C 10.566406 -11.148438 11.4375 -9.175781 13.09375 -7.6875 C 14.75 -6.207031 16.785156 -5.46875 19.203125 -5.46875 C 21.566406 -5.46875 23.320312 -5.984375 24.46875 -7.015625 C 25.613281 -8.054688 26.484375 -9.234375 27.078125 -10.546875 L 33.109375 -7.4375 C 32.515625 -6.289062 31.65625 -5.070312 30.53125 -3.78125 C 29.414062 -2.488281 27.925781 -1.382812 26.0625 -0.46875 C 24.195312 0.4375 21.84375 0.890625 19 0.890625 Z M 10.546875 -19.125 L 26.625 -19.125 C 26.457031 -21.207031 25.664062 -22.863281 24.25 -24.09375 C 22.832031 -25.320312 21 -25.9375 18.75 -25.9375 C 16.414062 -25.9375 14.550781 -25.320312 13.15625 -24.09375 C 11.757812 -22.863281 10.890625 -21.207031 10.546875 -19.125 Z M 10.546875 -19.125 "/></g></g></g><g fill="#ff6c0c" fill-opacity="1"><g transform="translate(126.057024, 126.794102)"><g><path d="M 17.609375 0.890625 C 13.535156 0.890625 10.1875 0 7.5625 -1.78125 C 4.9375 -3.5625 3.347656 -6.164062 2.796875 -9.59375 L 9.53125 -11.3125 C 9.832031 -9.707031 10.363281 -8.4375 11.125 -7.5 C 11.882812 -6.570312 12.828125 -5.914062 13.953125 -5.53125 C 15.078125 -5.144531 16.296875 -4.953125 17.609375 -4.953125 C 19.597656 -4.953125 21.085938 -5.3125 22.078125 -6.03125 C 23.078125 -6.757812 23.578125 -7.671875 23.578125 -8.765625 C 23.578125 -9.910156 23.097656 -10.757812 22.140625 -11.3125 C 21.191406 -11.863281 19.742188 -12.332031 17.796875 -12.71875 L 15.828125 -13.03125 C 13.660156 -13.457031 11.6875 -14.039062 9.90625 -14.78125 C 8.132812 -15.519531 6.707031 -16.535156 5.625 -17.828125 C 4.539062 -19.117188 4 -20.757812 4 -22.75 C 4 -25.800781 5.132812 -28.15625 7.40625 -29.8125 C 9.675781 -31.46875 12.648438 -32.296875 16.328125 -32.296875 C 19.847656 -32.296875 22.75 -31.507812 25.03125 -29.9375 C 27.320312 -28.375 28.8125 -26.273438 29.5 -23.640625 L 22.75 -21.609375 C 22.414062 -23.390625 21.675781 -24.648438 20.53125 -25.390625 C 19.382812 -26.128906 17.984375 -26.5 16.328125 -26.5 C 14.640625 -26.5 13.335938 -26.203125 12.421875 -25.609375 C 11.515625 -25.015625 11.0625 -24.171875 11.0625 -23.078125 C 11.0625 -21.972656 11.523438 -21.144531 12.453125 -20.59375 C 13.390625 -20.039062 14.640625 -19.640625 16.203125 -19.390625 L 18.171875 -19 C 20.503906 -18.582031 22.613281 -18.03125 24.5 -17.34375 C 26.382812 -16.664062 27.878906 -15.691406 28.984375 -14.421875 C 30.085938 -13.148438 30.640625 -11.4375 30.640625 -9.28125 C 30.640625 -6.019531 29.460938 -3.507812 27.109375 -1.75 C 24.753906 0.0078125 21.585938 0.890625 17.609375 0.890625 Z M 17.609375 0.890625 "/></g></g></g></g></g></g></g><g fill="#000000" fill-opacity="1"><g transform="translate(337.499982, 352.399986)"><g><path d="M 4.9375 -11.640625 L 4.9375 0 L 3.515625 0 L 3.515625 -9.59375 L 3.4375 -9.59375 C 3.382812 -9.488281 3.242188 -9.367188 3.015625 -9.234375 C 2.796875 -9.097656 2.507812 -8.976562 2.15625 -8.875 C 1.8125 -8.78125 1.421875 -8.734375 0.984375 -8.734375 L 0.984375 -9.90625 C 1.429688 -9.90625 1.816406 -9.984375 2.140625 -10.140625 C 2.472656 -10.304688 2.75 -10.5 2.96875 -10.71875 C 3.195312 -10.945312 3.367188 -11.148438 3.484375 -11.328125 C 3.597656 -11.503906 3.664062 -11.609375 3.6875 -11.640625 Z M 4.9375 -11.640625 "/></g></g></g></svg>